<svg width="41" height="40" viewBox="0 0 41 40" fill="none" xmlns="http://www.w3.org/2000/svg">
<path d="M10.2357 36.6693C9.31901 36.6693 8.53401 36.3426 7.88068 35.6893C7.22735 35.0359 6.90124 34.2515 6.90235 33.3359V6.66927C6.90235 5.75261 7.22901 4.96761 7.88235 4.31427C8.53568 3.66094 9.32012 3.33483 10.2357 3.33594H30.2357C31.1523 3.33594 31.9373 3.66261 32.5907 4.31594C33.244 4.96927 33.5701 5.75372 33.569 6.66927V33.3359C33.569 34.2526 33.2423 35.0376 32.589 35.6909C31.9357 36.3443 31.1512 36.6704 30.2357 36.6693H10.2357ZM18.569 18.3359L22.7357 15.8359L26.9023 18.3359V6.66927H18.569V18.3359Z" fill="#2C3033"/>
</svg>
