<svg width="33" height="32" viewBox="0 0 33 32" fill="none" xmlns="http://www.w3.org/2000/svg">
<path d="M27.589 20.9914C26.7732 20.6425 26.0783 20.061 25.5911 19.3195C25.1039 18.578 24.8459 17.7094 24.8494 16.8221C24.86 16.0301 25.0721 15.2539 25.4657 14.5666C25.8594 13.8793 26.4216 13.3036 27.0994 12.8937C27.2528 12.799 27.3853 12.6741 27.489 12.5266C27.5928 12.3792 27.6655 12.2123 27.7029 12.0359C27.7402 11.8595 27.7414 11.6774 27.7064 11.5006C27.6714 11.3238 27.6009 11.1559 27.4992 11.0071C26.8899 10.121 26.0956 9.37774 25.1711 8.82855C24.2466 8.27936 23.2139 7.93734 22.1443 7.82609C23.1398 6.24627 23.5916 4.38434 23.4308 2.52398C23.3994 2.18617 23.2384 1.87365 22.9815 1.652C22.7247 1.43035 22.392 1.3168 22.0532 1.33518C19.7638 1.53923 17.6415 2.61904 16.1287 4.3495C15.1698 5.46068 14.4931 6.78683 14.1561 8.21538C13.4598 7.97976 12.7309 7.85498 11.9959 7.84559C10.6352 7.88416 9.30759 8.27364 8.14172 8.97629C6.97585 9.67893 6.01131 10.6709 5.34161 11.856C2.82468 16.2258 4.3644 22.774 7.09095 26.7154C8.18469 28.2948 9.82597 30.6659 12.3019 30.6659C12.3507 30.6659 12.4002 30.6659 12.4497 30.6632C13.2792 30.6162 14.0914 30.406 14.8396 30.0447C15.4373 29.7418 16.0967 29.5805 16.7667 29.5734C17.3968 29.581 18.0165 29.7353 18.5766 30.0239C19.3951 30.4112 20.2871 30.6185 21.1925 30.632C23.7433 30.5838 25.2498 28.3833 26.3501 26.7752C27.2182 25.4979 27.8975 24.102 28.367 22.6306C28.4671 22.3097 28.4426 21.9627 28.2984 21.659C28.1542 21.3552 27.901 21.1169 27.589 20.9914ZM18.1476 6.09041C18.8479 5.30707 19.7254 4.70258 20.7068 4.32739C20.4921 5.38371 20.017 6.36969 19.3247 7.19587C18.8547 7.75971 18.283 8.23014 17.6391 8.58265L17.6352 8.58398C17.5975 8.59961 17.5597 8.61393 17.5219 8.62955C17.2732 8.72721 16.9659 8.8483 16.7289 8.92642C16.9578 7.87752 17.4455 6.90257 18.1476 6.09041ZM24.1495 25.2701C23.0779 26.8352 22.2349 27.9459 21.1437 27.9654C20.6162 27.9637 20.0976 27.8299 19.6352 27.5761C18.7414 27.1406 17.761 26.9118 16.7667 26.9067C15.7379 26.9119 14.7231 27.1454 13.7954 27.5903C13.3444 27.8206 12.8523 27.9595 12.3475 27.9992H12.3078C11.2238 27.9992 10.0578 26.3156 9.28367 25.1971C7.34681 22.3976 5.56036 16.8195 7.65281 13.1867C8.09159 12.4006 8.72613 11.7412 9.49486 11.2726C10.2636 10.804 11.1404 10.5421 12.0402 10.5123L12.0851 10.511C12.8441 10.5755 13.5854 10.7762 14.2733 11.1034C14.4484 11.1724 14.6209 11.2414 14.7921 11.3052C14.8357 11.3235 14.8807 11.3404 14.9262 11.3547C15.4007 11.5455 15.9047 11.6526 16.4158 11.6711C17.1395 11.6136 17.8464 11.4234 18.5012 11.1099C19.4242 10.6619 20.4388 10.435 21.4647 10.4472C22.5621 10.4901 23.6155 10.8896 24.4653 11.5852C23.7391 12.2543 23.1608 13.068 22.7677 13.974C22.3746 14.8799 22.1754 15.8581 22.1828 16.8456V16.8469C22.1753 18.0424 22.4711 19.2203 23.0427 20.2703C23.6143 21.3204 24.4429 22.2082 25.451 22.8508C25.1 23.6991 24.6639 24.5097 24.1495 25.2701Z" fill="#2C3033"/>
</svg>
