<svg width="41" height="40" viewBox="0 0 41 40" fill="none" xmlns="http://www.w3.org/2000/svg">
<path d="M10.2357 36.6673C9.31901 36.6673 8.53401 36.3407 7.88068 35.6873C7.22735 35.034 6.90124 34.2495 6.90235 33.334V6.66732C6.90235 5.75065 7.22901 4.96565 7.88235 4.31232C8.53568 3.65899 9.32012 3.33288 10.2357 3.33399H30.2357C31.1523 3.33399 31.9373 3.66065 32.5907 4.31399C33.244 4.96732 33.5701 5.75176 33.569 6.66732V33.334C33.569 34.2507 33.2423 35.0357 32.589 35.689C31.9357 36.3423 31.1512 36.6684 30.2357 36.6673H10.2357ZM18.569 18.334L22.7357 15.834L26.9023 18.334V6.66732H18.569V18.334Z" fill="white"/>
</svg>
