<svg width="20.000000" height="20.000000" viewBox="0 0 20 20" fill="none" xmlns="http://www.w3.org/2000/svg" xmlns:xlink="http://www.w3.org/1999/xlink">
	<desc>
			Created with Pixso.
	</desc>
	<defs>
		<clipPath id="clip1_898">
			<rect id="Linear / Video, Audio, Sound / Gallery Edit" rx="-0.500000" width="19.000000" height="19.000000" transform="translate(0.500000 0.500000)" fill="white" fill-opacity="0"/>
		</clipPath>
	</defs>
	<g clip-path="url(#clip1_898)">
		<path id="Vector" d="M18.33 10C18.33 13.92 18.33 15.89 17.11 17.11C15.89 18.33 13.92 18.33 10 18.33C6.07 18.33 4.1 18.33 2.88 17.11C1.66 15.89 1.66 13.92 1.66 10C1.66 6.07 1.66 4.1 2.88 2.88C4.1 1.66 6.07 1.66 10 1.66" stroke="#FFFFFF" stroke-opacity="1.000000" stroke-width="1.000000" stroke-linecap="round"/>
		<path id="Vector" d="M1.66 10.41L3.12 9.13C3.88 8.47 5.03 8.51 5.74 9.22L9.31 12.8C9.89 13.37 10.79 13.45 11.45 12.98L11.7 12.81C12.65 12.14 13.94 12.21 14.81 12.99L17.5 15.41" stroke="#FFFFFF" stroke-opacity="1.000000" stroke-width="1.000000" stroke-linecap="round"/>
		<path id="Vector" d="M15.81 2.09C16.39 1.52 17.32 1.52 17.9 2.09C18.47 2.67 18.47 3.6 17.9 4.18L17.55 4.53L14.35 7.72C14.14 7.94 14.03 8.05 13.91 8.14C13.77 8.25 13.62 8.34 13.46 8.42C13.32 8.49 13.17 8.53 12.88 8.63L11.95 8.94L11.35 9.14C11.21 9.19 11.05 9.15 10.94 9.05C10.84 8.94 10.8 8.78 10.85 8.64L11.05 8.04L11.36 7.11C11.46 6.82 11.5 6.67 11.57 6.53C11.65 6.37 11.74 6.22 11.85 6.08C11.94 5.96 12.05 5.85 12.27 5.64L15.46 2.44L15.81 2.09ZM15.46 2.44C15.46 2.44 15.51 3.18 16.16 3.83C16.81 4.48 17.55 4.53 17.55 4.53M11.95 8.94L11.05 8.04" stroke="#FFFFFF" stroke-opacity="1.000000" stroke-width="1.000000"/>
	</g>
</svg>
