<svg width="32" height="32" viewBox="0 0 32 32" fill="none" xmlns="http://www.w3.org/2000/svg">
<path d="M27.8916 14.204C27.4723 13.9774 23.8773 11.8915 22.5283 11.1064L22.5244 11.1037L6.18456 1.67017C5.90619 1.50024 5.59405 1.39318 5.26998 1.3565C4.9459 1.31981 4.61773 1.35437 4.30841 1.45777C4.27351 1.4703 4.24071 1.48291 4.20677 1.49845C4.12799 1.52413 4.05097 1.55496 3.97623 1.59074C3.66381 1.77748 3.4075 2.04498 3.23427 2.36508C3.06104 2.68519 2.9773 3.04607 2.99185 3.40975V28.7236C2.98194 29.0624 3.06218 29.3977 3.22439 29.6954C3.38659 29.993 3.62492 30.2422 3.91503 30.4176C3.98194 30.4503 4.05087 30.4786 4.12141 30.5025C4.15999 30.5203 4.19676 30.5359 4.23656 30.5499C4.42751 30.6191 4.62861 30.6563 4.83169 30.6598C5.22168 30.6555 5.60375 30.5491 5.93977 30.3512C6.458 30.0504 22.5244 20.7743 22.5244 20.7743L27.8851 17.6793C28.2165 17.5132 28.4963 17.2598 28.6941 16.9463C28.8919 16.6328 29.0003 16.2712 29.0075 15.9006C28.9912 15.5436 28.8789 15.1976 28.6825 14.8991C28.4862 14.6005 28.2129 14.3604 27.8916 14.204ZM5.65852 26.452V5.46915L16.2453 15.9479L5.65852 26.452ZM12.3492 23.5698L18.1405 17.8237L19.6733 19.3408C17.9871 20.3144 15.1382 21.9595 12.3492 23.5698V23.5698ZM18.1383 14.0698L12.2744 8.26578L19.6793 12.5408L18.1383 14.0698ZM22.0673 17.9587L20.0334 15.9456L22.0704 13.9246C23.0308 14.4823 24.5275 15.3503 25.5583 15.9436L22.0673 17.9587Z" fill="#2C3033"/>
</svg>
