<svg width="20.000000" height="15.000000" viewBox="0 0 20 15" fill="none" xmlns="http://www.w3.org/2000/svg" xmlns:xlink="http://www.w3.org/1999/xlink">
	<desc>
			Created with Pixso.
	</desc>
	<defs/>
	<path id="“" d="M0 15L0 11.05C0 9.85 0.21 8.58 0.65 7.23C1.09 5.87 1.74 4.56 2.57 3.31C3.43 2.03 4.45 0.93 5.65 0L8.52 2.28C7.57 3.59 6.75 4.97 6.05 6.4C5.36 7.82 5.02 9.34 5.02 10.96L5.02 15L0 15ZM11.47 15L11.47 11.05C11.47 9.85 11.69 8.58 12.13 7.23C12.57 5.87 13.22 4.56 14.05 3.31C14.91 2.03 15.93 0.93 17.12 0L20 2.28C19.05 3.59 18.23 4.97 17.53 6.4C16.84 7.82 16.5 9.34 16.5 10.96L16.5 15L11.47 15Z" fill="#2C3033" fill-opacity="1.000000" fill-rule="nonzero"/>
</svg>
