<svg width="24.000000" height="24.000000" viewBox="0 0 24 24" fill="none" xmlns="http://www.w3.org/2000/svg" xmlns:xlink="http://www.w3.org/1999/xlink">
	<desc>
			Created with Pixso.
	</desc>
	<defs>
		<clipPath id="clip1_1770">
			<rect id="Linear / Messages, Conversation / Forward" rx="-0.500000" width="23.000000" height="23.000000" transform="translate(0.500000 0.500000)" fill="white" fill-opacity="0"/>
		</clipPath>
	</defs>
	<g clip-path="url(#clip1_1770)">
		<path id="Vector" d="M14.66 5.47C13.94 4.84 13.59 4.52 13.29 4.65C13 4.78 13 5.26 13 6.22L13 8.57C9.33 8.57 4 10.85 4 20C5.5 17.14 9.4 15.42 13 15.42L13 17.77C13 18.73 13 19.21 13.29 19.34C13.59 19.47 13.94 19.15 14.66 18.52L18.63 14.98C20.2 13.59 20.98 12.89 20.98 12C20.98 11.1 20.2 10.4 18.63 9.01L14.66 5.47Z" stroke="#2C3033" stroke-opacity="1.000000" stroke-width="1.500000"/>
	</g>
</svg>
